<?xml version="1.0" encoding="utf-8"?>
<!-- Generator: Adobe Illustrator 24.1.2, SVG Export Plug-In . SVG Version: 6.00 Build 0)  -->
<svg version="1.1" id="Layer_1" xmlns="http://www.w3.org/2000/svg" xmlns:xlink="http://www.w3.org/1999/xlink" x="0px" y="0px"
	 viewBox="0 0 80 80" style="enable-background:new 0 0 80 80;" xml:space="preserve">
<style type="text/css">
	.st0{fill-rule:evenodd;clip-rule:evenodd;fill:#E0E0E0;}
	.st1{fill:#212121;}
</style>
<g id="Main">
	<g id="Login" transform="translate(-680.000000, -387.000000)">
		<g id="Logo" transform="translate(545.000000, 347.000000)">
			<g transform="translate(135.000000, 40.000000)">
				<circle id="Oval" class="st0" cx="40" cy="40" r="40"/>
				<g transform="translate(16.000000, 20.000000)">
					<path id="Path" class="st1" d="M42.9,16.7L32.7,6.5l7.9,0c0.4,0,0.8-0.3,0.8-0.8V0.8C41.4,0.4,41,0,40.6,0H23.7
						c0.5,0.3,0.9,0.7,1.3,1.1c1.6,1.6,2.4,3.8,2.4,6.2v3.8L38,21.7c2.5,2.5,2.5,6.6-0.1,9.1s-6.6,2.5-9.1,0.1L21,22.9l-6.4-6.5H9
						c-0.9,0-1.6-0.7-1.6-1.6V8.5c0-0.9,0.7-1.6,1.6-1.6h0.6V6.6C9.6,6.3,9.9,6,10.3,6h1.7c0.3,0,0.6,0.3,0.6,0.6v0.3h5.5
						c0.9,0,1.6,0.7,1.6,1.6v6.4c0,0.9-0.7,1.6-1.6,1.6h-1.6l6,6c2.3-1.2,3.7-3.5,3.7-6.4V7.3c0-4.3-3-7.3-7.3-7.3H0v39.7h7.4V23.2
						h4l12.5,12.5c3.4,3.5,8.4,4.9,13.1,3.7c4.7-1.2,8.4-4.9,9.6-9.6S46.4,20.1,42.9,16.7L42.9,16.7z"/>
					<ellipse id="Oval_1_" class="st1" cx="13.6" cy="11.7" rx="2.8" ry="2.8"/>
					<rect id="Rectangle" x="8.6" y="8.2" class="st1" width="1" height="1"/>
				</g>
			</g>
		</g>
	</g>
</g>
</svg>
